<svg xmlns="http://www.w3.org/2000/svg" viewBox="0 0 96 96" id="Job">
  <path d="M35.275 46.225c.283.283.66.439 1.061.439.4 0 .777-.156 1.061-.439l2.828-2.828a1.49 1.49 0 0 0 .405-.842c.006-.016.016-.03.02-.047.003-.012-.001-.024.001-.036.001-.016.01-.03.011-.046a1.498 1.498 0 0 0-.437-1.149l-4.95-4.95a1.502 1.502 0 0 0-2.121 0l-2.829 2.829a1.503 1.503 0 0 0 0 2.121l4.95 4.948zm3.928-4.557-2.793-.631a1.393 1.393 0 0 1-1.048-1.048l-.631-2.793 4.472 4.472zm-8.171-1.807 2.672-2.672.682 3.021a2.4 2.4 0 0 0 1.803 1.803l3.267.738-2.767 2.767a.512.512 0 0 1-.707 0l-4.95-4.95a.5.5 0 0 1 0-.707zM65.511 72h-1.5V55.5c0-1.378-1.122-2.5-2.5-2.5h-8.5c0-2.757-2.243-5-5-5s-5 2.243-5 5h-8.5a2.503 2.503 0 0 0-2.5 2.5V72h-1.5a.5.5 0 0 0-.5.5v1c0 1.93 1.57 3.5 3.5 3.5h29c1.93 0 3.5-1.57 3.5-3.5v-1a.5.5 0 0 0-.5-.5zM51.99 56h9.021v14h-26V56h9.004a4.972 4.972 0 0 0 2.478 1.746L46.507 59a.5.5 0 0 0-.496.499V65c0 1.103.897 2 2 2s2-.897 2-2v-5.5a.5.5 0 0 0-.5-.5h-.004l-.014-1.25a4.99 4.99 0 0 0 2.493-1.751l.004.001zm-3.495 1.951L48.506 59h-1l-.011-1.048c.171.018.339.048.515.048.166 0 .323-.033.485-.049zM47.01 60h2v5c0 .551-.449 1-1 1s-1-.449-1-1v-5zm1-11c2.206 0 4 1.794 4 4s-1.794 4-4 4a3.993 3.993 0 0 1-4-4c0-2.206 1.795-4 4-4zm-14.999 6.5c0-.827.673-1.5 1.5-1.5h8.622c.071.349.175.683.313 1h-8.935a.5.5 0 0 0-.5.5v15a.5.5 0 0 0 .5.5h27a.5.5 0 0 0 .5-.5v-15a.5.5 0 0 0-.5-.5h-8.924a4.91 4.91 0 0 0 .323-1h8.602c.827 0 1.5.673 1.5 1.5V72h-30V55.5zm12 17.5h6v1h-6v-1zm20 .5c0 1.378-1.122 2.5-2.5 2.5h-29a2.503 2.503 0 0 1-2.5-2.5V73h13v1.5a.5.5 0 0 0 .5.5h7a.5.5 0 0 0 .5-.5V73h13v.5z" fill="#ffffff" class="color000000 svgShape"></path>
  <path d="M45.525 53.776a.5.5 0 0 0 .498-.553A2.002 2.002 0 0 1 48.01 51a.5.5 0 0 0 0-1 3.004 3.004 0 0 0-2.982 3.33.5.5 0 0 0 .497.446zm-18.75-17.465a.5.5 0 0 0-.707.707l2.122 2.122a.498.498 0 0 0 .708 0 .5.5 0 0 0 0-.707l-2.123-2.122zm3.536 1.414a.5.5 0 0 0 0-.707l-1.414-1.414a.5.5 0 0 0-.707.707l1.414 1.414a.498.498 0 0 0 .707 0zm24.626 4.782c.004.017.014.03.019.046.047.316.177.614.405.843l2.829 2.828c.292.292.676.438 1.061.438s.768-.146 1.061-.438l4.95-4.949a1.49 1.49 0 0 0 .439-1.061c0-.4-.156-.777-.439-1.061l-2.829-2.829a1.507 1.507 0 0 0-.928-.433 1.486 1.486 0 0 0-1.193.433l-4.95 4.95a1.504 1.504 0 0 0-.437 1.15c.001.016.01.03.011.046.002.014-.002.025.001.037zm9.616-2.646a.5.5 0 0 1 0 .708l-4.95 4.95a.501.501 0 0 1-.707 0l-2.768-2.767 3.267-.738a2.398 2.398 0 0 0 1.803-1.803l.682-3.021 2.673 2.671zm-3.699-2.666-.631 2.794a1.393 1.393 0 0 1-1.048 1.048l-2.793.631 4.472-4.473zm7.957-.884-2.121 2.122a.5.5 0 0 0 .708.707l2.121-2.122a.5.5 0 0 0-.708-.707zm-3.182 1.56a.502.502 0 0 0 .354-.146l1.414-1.414a.5.5 0 0 0-.707-.707l-1.414 1.414a.5.5 0 0 0 .353.853zM44.51 44.51c0 .429.184.838.505 1.122.012.011.028.014.041.025.01.007.015.018.025.024.009.006.019.003.028.008.26.199.571.321.901.321h4c.827 0 1.5-.673 1.5-1.5v-7c0-.827-.673-1.5-1.5-1.5h-4a1.504 1.504 0 0 0-1.5 1.5v7zm1-6.769 1.529 2.42a1.397 1.397 0 0 1 0 1.483l-1.529 2.422v-6.325zm5-.231v7a.5.5 0 0 1-.5.5h-3.914l1.789-2.832a2.401 2.401 0 0 0 0-2.551l-1.654-2.618h3.779c.276.001.5.225.5.501zm1-5.02a.5.5 0 0 0-1 0v2a.5.5 0 0 0 1 0v-2zm-6 2v-2a.5.5 0 0 0-1 0v2a.5.5 0 0 0 1 0zm2 0v-1a.5.5 0 0 0-1 0v1a.5.5 0 0 0 1 0zm2 0v-1a.5.5 0 0 0-1 0v1a.5.5 0 0 0 1 0zm-7.266-7.866c.021.073.038.147.061.219.082.249.183.491.298.727.066.139.136.274.213.407.047.08.1.156.15.234.179.281.378.545.6.791l.03.032C44.697 30.239 46.264 31 48.01 31a5.96 5.96 0 0 0 3.387-1.052c.002-.002.005-.001.008-.002.035-.024.066-.054.101-.079a4.828 4.828 0 0 0 .587-.482c.104-.097.205-.198.302-.302.056-.061.113-.121.167-.183.106-.124.206-.253.302-.386.032-.045.068-.087.099-.132.125-.182.239-.371.343-.566.021-.039.037-.079.057-.118.081-.16.156-.324.222-.492.024-.06.045-.122.067-.183.055-.152.103-.306.145-.462.018-.067.036-.133.052-.201.037-.161.067-.324.091-.489.009-.062.021-.123.028-.186.026-.225.042-.453.042-.685 0-3.309-2.691-6-6-6a6.006 6.006 0 0 0-5.964 6.663c.036.327.108.647.198.961zm2.991 2.523a2.892 2.892 0 0 1-.227-.816 3.007 3.007 0 0 1 1.425-2.884c.429.343.968.553 1.557.553a2.469 2.469 0 0 0 1.241-.343c.094-.054.184-.113.27-.179.015-.011.032-.019.047-.031A3.005 3.005 0 0 1 50.99 28c0 .402-.099.801-.273 1.192A4.965 4.965 0 0 1 48.01 30a4.98 4.98 0 0 1-2.775-.853zM49.1 24.5l-.003.002a1.492 1.492 0 0 1-1.296.463 1.522 1.522 0 0 1-.724-.291 1.252 1.252 0 0 1-.15-.133 1.478 1.478 0 0 1-.438-1.041c0-.827.673-1.5 1.5-1.5s1.5.673 1.5 1.5c.001.385-.149.734-.389 1zM48.01 20c2.757 0 5 2.243 5 5 0 .315-.037.621-.093.92-.019.103-.051.203-.076.304a4.94 4.94 0 0 1-.177.569 4.963 4.963 0 0 1-.41.82c-.057.093-.113.186-.176.275-.027.037-.06.069-.088.106a4.01 4.01 0 0 0-1.803-3.325c.188-.351.304-.745.304-1.169 0-1.378-1.122-2.5-2.5-2.5a2.503 2.503 0 0 0-2.485 2.776c.036.325.134.628.28.901a4.012 4.012 0 0 0-1.794 3.272 5.003 5.003 0 0 1-.538-.932c-.052-.118-.104-.236-.147-.359a5.031 5.031 0 0 1-.264-1.103A5.002 5.002 0 0 1 48.01 20zM28.405 33.946c.035-.024.066-.054.101-.079a4.828 4.828 0 0 0 .587-.482c.104-.097.205-.198.302-.302.056-.061.113-.121.167-.183.106-.124.206-.253.302-.386.032-.045.068-.087.099-.132.125-.182.239-.371.343-.566.021-.039.037-.079.057-.118.081-.16.156-.324.222-.492.024-.06.045-.122.067-.183.055-.152.103-.306.145-.462.018-.067.036-.133.052-.201.037-.161.067-.324.091-.489.009-.062.021-.123.028-.186.026-.225.042-.453.042-.685 0-3.309-2.691-6-6-6a6.006 6.006 0 0 0-5.964 6.663c.036.328.108.648.198.962.021.073.038.147.061.219.082.249.183.491.298.727.066.139.136.274.213.407.047.08.1.156.15.234.179.281.378.545.6.791l.03.032C21.697 34.239 23.264 35 25.01 35a5.96 5.96 0 0 0 3.387-1.052l.008-.002zM25.01 24c2.757 0 5 2.243 5 5 0 .315-.037.621-.093.92-.019.103-.051.203-.076.304a4.94 4.94 0 0 1-.177.569 4.963 4.963 0 0 1-.41.82c-.057.093-.113.186-.176.275-.027.037-.06.069-.088.106a4.01 4.01 0 0 0-1.803-3.325c.188-.351.304-.745.304-1.169 0-1.378-1.122-2.5-2.5-2.5a2.503 2.503 0 0 0-2.485 2.776c.036.325.134.628.28.901a4.012 4.012 0 0 0-1.794 3.272 5.003 5.003 0 0 1-.538-.932c-.052-.118-.104-.236-.147-.359a5.031 5.031 0 0 1-.264-1.103A5.002 5.002 0 0 1 25.01 24zm1.087 4.502a1.492 1.492 0 0 1-1.296.463 1.512 1.512 0 0 1-.723-.292 1.252 1.252 0 0 1-.15-.133 1.478 1.478 0 0 1-.438-1.041c0-.827.673-1.5 1.5-1.5s1.5.673 1.5 1.5c0 .385-.15.734-.39 1l-.003.003zm-3.862 4.645a2.892 2.892 0 0 1-.227-.816 3.007 3.007 0 0 1 1.425-2.884c.429.343.968.553 1.557.553a2.469 2.469 0 0 0 1.241-.343c.094-.054.184-.113.27-.179.015-.011.032-.019.047-.031A3.005 3.005 0 0 1 27.99 32c0 .402-.099.801-.273 1.192A4.965 4.965 0 0 1 25.01 34a4.98 4.98 0 0 1-2.775-.853zm53.707-.765c.124-.182.239-.371.343-.566.021-.039.038-.08.057-.119.081-.16.155-.323.222-.491.024-.061.045-.122.067-.184a6.015 6.015 0 0 0 .287-1.151c.009-.063.021-.124.029-.187.026-.224.043-.452.043-.684 0-3.309-2.691-6-6-6a6.006 6.006 0 0 0-5.964 6.663c.036.327.107.646.197.96.021.074.038.149.062.223.082.249.183.49.297.725.066.14.137.275.213.408.045.078.098.152.147.228.18.283.38.549.603.796l.03.032C67.676 34.239 69.243 35 70.99 35c1.256 0 2.422-.39 3.387-1.052l.007-.002c.032-.022.059-.048.09-.071.143-.103.283-.211.416-.325.061-.053.12-.108.179-.162.106-.098.207-.2.306-.305.056-.06.112-.119.165-.181.107-.124.206-.253.303-.386.032-.046.068-.089.099-.134zM70.99 24c2.757 0 5 2.243 5 5 0 .315-.037.621-.093.92-.019.104-.051.203-.077.305a4.966 4.966 0 0 1-.176.567 5.054 5.054 0 0 1-.41.82c-.058.094-.114.188-.178.278-.027.037-.06.069-.087.106a4.012 4.012 0 0 0-1.803-3.326c.188-.351.304-.745.304-1.169 0-1.378-1.122-2.5-2.5-2.5a2.503 2.503 0 0 0-2.206 3.677 4.01 4.01 0 0 0-1.794 3.271 5.003 5.003 0 0 1-.538-.932c-.052-.118-.104-.236-.147-.359a5.218 5.218 0 0 1-.265-1.104A5.006 5.006 0 0 1 70.99 24zm1.086 4.502a1.492 1.492 0 0 1-1.296.463 1.517 1.517 0 0 1-.722-.291 1.346 1.346 0 0 1-.15-.133 1.483 1.483 0 0 1-.438-1.041c0-.827.673-1.5 1.5-1.5s1.5.673 1.5 1.5c0 .385-.15.734-.39 1l-.004.002zm-3.862 4.645a2.913 2.913 0 0 1-.227-.814 3.007 3.007 0 0 1 1.425-2.886c.429.343.968.553 1.557.553.425 0 .819-.116 1.17-.304.024-.013.048-.025.071-.039.094-.054.184-.113.27-.179.015-.011.032-.019.047-.031A3.005 3.005 0 0 1 73.969 32c0 .402-.099.802-.273 1.192A4.956 4.956 0 0 1 70.99 34a4.981 4.981 0 0 1-2.776-.853z" fill="#ffffff" class="color000000 svgShape"></path>
  <path d="M48 0C21.533 0 0 21.533 0 48s21.533 48 48 48 48-21.533 48-48S74.467 0 48 0zm0 95C22.084 95 1 73.916 1 48S22.084 1 48 1s47 21.084 47 47-21.084 47-47 47z" fill="#ffffff" class="color000000 svgShape"></path>
</svg>
